<?xml version="1.0" encoding="utf-8"?>
<!DOCTYPE svg PUBLIC "-//W3C//DTD SVG 1.1//EN" "http://www.w3.org/Graphics/SVG/1.1/DTD/svg11.dtd">
<svg xmlns="http://www.w3.org/2000/svg" version="1.1" xml:space="preserve" xmlns:xlink="http://www.w3.org/1999/xlink" width="232" height="232" viewBox="0 0 232 232">
<desc></desc>
<rect width="232" height="232" fill="#ffffff" cx="0" cy="0" />
<defs>
	<rect id="p" width="8" height="8" />
</defs>
<g fill="#000000">
	<use x="16" y="16" xlink:href="#p" />
	<use x="24" y="16" xlink:href="#p" />
	<use x="32" y="16" xlink:href="#p" />
	<use x="40" y="16" xlink:href="#p" />
	<use x="48" y="16" xlink:href="#p" />
	<use x="56" y="16" xlink:href="#p" />
	<use x="64" y="16" xlink:href="#p" />
	<use x="80" y="16" xlink:href="#p" />
	<use x="104" y="16" xlink:href="#p" />
	<use x="112" y="16" xlink:href="#p" />
	<use x="120" y="16" xlink:href="#p" />
	<use x="160" y="16" xlink:href="#p" />
	<use x="168" y="16" xlink:href="#p" />
	<use x="176" y="16" xlink:href="#p" />
	<use x="184" y="16" xlink:href="#p" />
	<use x="192" y="16" xlink:href="#p" />
	<use x="200" y="16" xlink:href="#p" />
	<use x="208" y="16" xlink:href="#p" />
	<use x="16" y="24" xlink:href="#p" />
	<use x="64" y="24" xlink:href="#p" />
	<use x="88" y="24" xlink:href="#p" />
	<use x="96" y="24" xlink:href="#p" />
	<use x="128" y="24" xlink:href="#p" />
	<use x="144" y="24" xlink:href="#p" />
	<use x="160" y="24" xlink:href="#p" />
	<use x="208" y="24" xlink:href="#p" />
	<use x="16" y="32" xlink:href="#p" />
	<use x="32" y="32" xlink:href="#p" />
	<use x="40" y="32" xlink:href="#p" />
	<use x="48" y="32" xlink:href="#p" />
	<use x="64" y="32" xlink:href="#p" />
	<use x="96" y="32" xlink:href="#p" />
	<use x="112" y="32" xlink:href="#p" />
	<use x="120" y="32" xlink:href="#p" />
	<use x="128" y="32" xlink:href="#p" />
	<use x="136" y="32" xlink:href="#p" />
	<use x="160" y="32" xlink:href="#p" />
	<use x="176" y="32" xlink:href="#p" />
	<use x="184" y="32" xlink:href="#p" />
	<use x="192" y="32" xlink:href="#p" />
	<use x="208" y="32" xlink:href="#p" />
	<use x="16" y="40" xlink:href="#p" />
	<use x="32" y="40" xlink:href="#p" />
	<use x="40" y="40" xlink:href="#p" />
	<use x="48" y="40" xlink:href="#p" />
	<use x="64" y="40" xlink:href="#p" />
	<use x="112" y="40" xlink:href="#p" />
	<use x="120" y="40" xlink:href="#p" />
	<use x="128" y="40" xlink:href="#p" />
	<use x="144" y="40" xlink:href="#p" />
	<use x="160" y="40" xlink:href="#p" />
	<use x="176" y="40" xlink:href="#p" />
	<use x="184" y="40" xlink:href="#p" />
	<use x="192" y="40" xlink:href="#p" />
	<use x="208" y="40" xlink:href="#p" />
	<use x="16" y="48" xlink:href="#p" />
	<use x="32" y="48" xlink:href="#p" />
	<use x="40" y="48" xlink:href="#p" />
	<use x="48" y="48" xlink:href="#p" />
	<use x="64" y="48" xlink:href="#p" />
	<use x="88" y="48" xlink:href="#p" />
	<use x="104" y="48" xlink:href="#p" />
	<use x="120" y="48" xlink:href="#p" />
	<use x="128" y="48" xlink:href="#p" />
	<use x="144" y="48" xlink:href="#p" />
	<use x="160" y="48" xlink:href="#p" />
	<use x="176" y="48" xlink:href="#p" />
	<use x="184" y="48" xlink:href="#p" />
	<use x="192" y="48" xlink:href="#p" />
	<use x="208" y="48" xlink:href="#p" />
	<use x="16" y="56" xlink:href="#p" />
	<use x="64" y="56" xlink:href="#p" />
	<use x="96" y="56" xlink:href="#p" />
	<use x="112" y="56" xlink:href="#p" />
	<use x="120" y="56" xlink:href="#p" />
	<use x="128" y="56" xlink:href="#p" />
	<use x="144" y="56" xlink:href="#p" />
	<use x="160" y="56" xlink:href="#p" />
	<use x="208" y="56" xlink:href="#p" />
	<use x="16" y="64" xlink:href="#p" />
	<use x="24" y="64" xlink:href="#p" />
	<use x="32" y="64" xlink:href="#p" />
	<use x="40" y="64" xlink:href="#p" />
	<use x="48" y="64" xlink:href="#p" />
	<use x="56" y="64" xlink:href="#p" />
	<use x="64" y="64" xlink:href="#p" />
	<use x="80" y="64" xlink:href="#p" />
	<use x="96" y="64" xlink:href="#p" />
	<use x="112" y="64" xlink:href="#p" />
	<use x="128" y="64" xlink:href="#p" />
	<use x="144" y="64" xlink:href="#p" />
	<use x="160" y="64" xlink:href="#p" />
	<use x="168" y="64" xlink:href="#p" />
	<use x="176" y="64" xlink:href="#p" />
	<use x="184" y="64" xlink:href="#p" />
	<use x="192" y="64" xlink:href="#p" />
	<use x="200" y="64" xlink:href="#p" />
	<use x="208" y="64" xlink:href="#p" />
	<use x="80" y="72" xlink:href="#p" />
	<use x="96" y="72" xlink:href="#p" />
	<use x="104" y="72" xlink:href="#p" />
	<use x="120" y="72" xlink:href="#p" />
	<use x="128" y="72" xlink:href="#p" />
	<use x="144" y="72" xlink:href="#p" />
	<use x="16" y="80" xlink:href="#p" />
	<use x="24" y="80" xlink:href="#p" />
	<use x="40" y="80" xlink:href="#p" />
	<use x="48" y="80" xlink:href="#p" />
	<use x="64" y="80" xlink:href="#p" />
	<use x="88" y="80" xlink:href="#p" />
	<use x="96" y="80" xlink:href="#p" />
	<use x="104" y="80" xlink:href="#p" />
	<use x="128" y="80" xlink:href="#p" />
	<use x="136" y="80" xlink:href="#p" />
	<use x="144" y="80" xlink:href="#p" />
	<use x="160" y="80" xlink:href="#p" />
	<use x="208" y="80" xlink:href="#p" />
	<use x="24" y="88" xlink:href="#p" />
	<use x="32" y="88" xlink:href="#p" />
	<use x="40" y="88" xlink:href="#p" />
	<use x="72" y="88" xlink:href="#p" />
	<use x="88" y="88" xlink:href="#p" />
	<use x="112" y="88" xlink:href="#p" />
	<use x="128" y="88" xlink:href="#p" />
	<use x="136" y="88" xlink:href="#p" />
	<use x="168" y="88" xlink:href="#p" />
	<use x="176" y="88" xlink:href="#p" />
	<use x="184" y="88" xlink:href="#p" />
	<use x="192" y="88" xlink:href="#p" />
	<use x="200" y="88" xlink:href="#p" />
	<use x="16" y="96" xlink:href="#p" />
	<use x="24" y="96" xlink:href="#p" />
	<use x="32" y="96" xlink:href="#p" />
	<use x="48" y="96" xlink:href="#p" />
	<use x="56" y="96" xlink:href="#p" />
	<use x="64" y="96" xlink:href="#p" />
	<use x="80" y="96" xlink:href="#p" />
	<use x="96" y="96" xlink:href="#p" />
	<use x="104" y="96" xlink:href="#p" />
	<use x="120" y="96" xlink:href="#p" />
	<use x="128" y="96" xlink:href="#p" />
	<use x="136" y="96" xlink:href="#p" />
	<use x="152" y="96" xlink:href="#p" />
	<use x="160" y="96" xlink:href="#p" />
	<use x="184" y="96" xlink:href="#p" />
	<use x="208" y="96" xlink:href="#p" />
	<use x="40" y="104" xlink:href="#p" />
	<use x="72" y="104" xlink:href="#p" />
	<use x="80" y="104" xlink:href="#p" />
	<use x="88" y="104" xlink:href="#p" />
	<use x="96" y="104" xlink:href="#p" />
	<use x="104" y="104" xlink:href="#p" />
	<use x="112" y="104" xlink:href="#p" />
	<use x="128" y="104" xlink:href="#p" />
	<use x="136" y="104" xlink:href="#p" />
	<use x="160" y="104" xlink:href="#p" />
	<use x="168" y="104" xlink:href="#p" />
	<use x="176" y="104" xlink:href="#p" />
	<use x="184" y="104" xlink:href="#p" />
	<use x="192" y="104" xlink:href="#p" />
	<use x="200" y="104" xlink:href="#p" />
	<use x="208" y="104" xlink:href="#p" />
	<use x="24" y="112" xlink:href="#p" />
	<use x="32" y="112" xlink:href="#p" />
	<use x="40" y="112" xlink:href="#p" />
	<use x="48" y="112" xlink:href="#p" />
	<use x="64" y="112" xlink:href="#p" />
	<use x="88" y="112" xlink:href="#p" />
	<use x="104" y="112" xlink:href="#p" />
	<use x="112" y="112" xlink:href="#p" />
	<use x="144" y="112" xlink:href="#p" />
	<use x="160" y="112" xlink:href="#p" />
	<use x="168" y="112" xlink:href="#p" />
	<use x="208" y="112" xlink:href="#p" />
	<use x="16" y="120" xlink:href="#p" />
	<use x="32" y="120" xlink:href="#p" />
	<use x="40" y="120" xlink:href="#p" />
	<use x="48" y="120" xlink:href="#p" />
	<use x="128" y="120" xlink:href="#p" />
	<use x="136" y="120" xlink:href="#p" />
	<use x="144" y="120" xlink:href="#p" />
	<use x="152" y="120" xlink:href="#p" />
	<use x="176" y="120" xlink:href="#p" />
	<use x="200" y="120" xlink:href="#p" />
	<use x="16" y="128" xlink:href="#p" />
	<use x="24" y="128" xlink:href="#p" />
	<use x="32" y="128" xlink:href="#p" />
	<use x="48" y="128" xlink:href="#p" />
	<use x="56" y="128" xlink:href="#p" />
	<use x="64" y="128" xlink:href="#p" />
	<use x="72" y="128" xlink:href="#p" />
	<use x="88" y="128" xlink:href="#p" />
	<use x="104" y="128" xlink:href="#p" />
	<use x="112" y="128" xlink:href="#p" />
	<use x="120" y="128" xlink:href="#p" />
	<use x="128" y="128" xlink:href="#p" />
	<use x="136" y="128" xlink:href="#p" />
	<use x="152" y="128" xlink:href="#p" />
	<use x="160" y="128" xlink:href="#p" />
	<use x="176" y="128" xlink:href="#p" />
	<use x="184" y="128" xlink:href="#p" />
	<use x="192" y="128" xlink:href="#p" />
	<use x="200" y="128" xlink:href="#p" />
	<use x="208" y="128" xlink:href="#p" />
	<use x="16" y="136" xlink:href="#p" />
	<use x="72" y="136" xlink:href="#p" />
	<use x="80" y="136" xlink:href="#p" />
	<use x="104" y="136" xlink:href="#p" />
	<use x="128" y="136" xlink:href="#p" />
	<use x="144" y="136" xlink:href="#p" />
	<use x="160" y="136" xlink:href="#p" />
	<use x="168" y="136" xlink:href="#p" />
	<use x="184" y="136" xlink:href="#p" />
	<use x="192" y="136" xlink:href="#p" />
	<use x="208" y="136" xlink:href="#p" />
	<use x="16" y="144" xlink:href="#p" />
	<use x="32" y="144" xlink:href="#p" />
	<use x="64" y="144" xlink:href="#p" />
	<use x="72" y="144" xlink:href="#p" />
	<use x="88" y="144" xlink:href="#p" />
	<use x="96" y="144" xlink:href="#p" />
	<use x="128" y="144" xlink:href="#p" />
	<use x="136" y="144" xlink:href="#p" />
	<use x="144" y="144" xlink:href="#p" />
	<use x="152" y="144" xlink:href="#p" />
	<use x="160" y="144" xlink:href="#p" />
	<use x="168" y="144" xlink:href="#p" />
	<use x="176" y="144" xlink:href="#p" />
	<use x="192" y="144" xlink:href="#p" />
	<use x="200" y="144" xlink:href="#p" />
	<use x="80" y="152" xlink:href="#p" />
	<use x="96" y="152" xlink:href="#p" />
	<use x="104" y="152" xlink:href="#p" />
	<use x="112" y="152" xlink:href="#p" />
	<use x="120" y="152" xlink:href="#p" />
	<use x="144" y="152" xlink:href="#p" />
	<use x="176" y="152" xlink:href="#p" />
	<use x="192" y="152" xlink:href="#p" />
	<use x="200" y="152" xlink:href="#p" />
	<use x="16" y="160" xlink:href="#p" />
	<use x="24" y="160" xlink:href="#p" />
	<use x="32" y="160" xlink:href="#p" />
	<use x="40" y="160" xlink:href="#p" />
	<use x="48" y="160" xlink:href="#p" />
	<use x="56" y="160" xlink:href="#p" />
	<use x="64" y="160" xlink:href="#p" />
	<use x="104" y="160" xlink:href="#p" />
	<use x="144" y="160" xlink:href="#p" />
	<use x="160" y="160" xlink:href="#p" />
	<use x="176" y="160" xlink:href="#p" />
	<use x="208" y="160" xlink:href="#p" />
	<use x="16" y="168" xlink:href="#p" />
	<use x="64" y="168" xlink:href="#p" />
	<use x="96" y="168" xlink:href="#p" />
	<use x="112" y="168" xlink:href="#p" />
	<use x="128" y="168" xlink:href="#p" />
	<use x="136" y="168" xlink:href="#p" />
	<use x="144" y="168" xlink:href="#p" />
	<use x="176" y="168" xlink:href="#p" />
	<use x="200" y="168" xlink:href="#p" />
	<use x="208" y="168" xlink:href="#p" />
	<use x="16" y="176" xlink:href="#p" />
	<use x="32" y="176" xlink:href="#p" />
	<use x="40" y="176" xlink:href="#p" />
	<use x="48" y="176" xlink:href="#p" />
	<use x="64" y="176" xlink:href="#p" />
	<use x="80" y="176" xlink:href="#p" />
	<use x="96" y="176" xlink:href="#p" />
	<use x="112" y="176" xlink:href="#p" />
	<use x="120" y="176" xlink:href="#p" />
	<use x="128" y="176" xlink:href="#p" />
	<use x="136" y="176" xlink:href="#p" />
	<use x="144" y="176" xlink:href="#p" />
	<use x="152" y="176" xlink:href="#p" />
	<use x="160" y="176" xlink:href="#p" />
	<use x="168" y="176" xlink:href="#p" />
	<use x="176" y="176" xlink:href="#p" />
	<use x="200" y="176" xlink:href="#p" />
	<use x="208" y="176" xlink:href="#p" />
	<use x="16" y="184" xlink:href="#p" />
	<use x="32" y="184" xlink:href="#p" />
	<use x="40" y="184" xlink:href="#p" />
	<use x="48" y="184" xlink:href="#p" />
	<use x="64" y="184" xlink:href="#p" />
	<use x="80" y="184" xlink:href="#p" />
	<use x="88" y="184" xlink:href="#p" />
	<use x="96" y="184" xlink:href="#p" />
	<use x="128" y="184" xlink:href="#p" />
	<use x="152" y="184" xlink:href="#p" />
	<use x="160" y="184" xlink:href="#p" />
	<use x="200" y="184" xlink:href="#p" />
	<use x="208" y="184" xlink:href="#p" />
	<use x="16" y="192" xlink:href="#p" />
	<use x="32" y="192" xlink:href="#p" />
	<use x="40" y="192" xlink:href="#p" />
	<use x="48" y="192" xlink:href="#p" />
	<use x="64" y="192" xlink:href="#p" />
	<use x="112" y="192" xlink:href="#p" />
	<use x="128" y="192" xlink:href="#p" />
	<use x="136" y="192" xlink:href="#p" />
	<use x="176" y="192" xlink:href="#p" />
	<use x="184" y="192" xlink:href="#p" />
	<use x="192" y="192" xlink:href="#p" />
	<use x="200" y="192" xlink:href="#p" />
	<use x="208" y="192" xlink:href="#p" />
	<use x="16" y="200" xlink:href="#p" />
	<use x="64" y="200" xlink:href="#p" />
	<use x="80" y="200" xlink:href="#p" />
	<use x="96" y="200" xlink:href="#p" />
	<use x="128" y="200" xlink:href="#p" />
	<use x="136" y="200" xlink:href="#p" />
	<use x="160" y="200" xlink:href="#p" />
	<use x="168" y="200" xlink:href="#p" />
	<use x="176" y="200" xlink:href="#p" />
	<use x="192" y="200" xlink:href="#p" />
	<use x="200" y="200" xlink:href="#p" />
	<use x="208" y="200" xlink:href="#p" />
	<use x="16" y="208" xlink:href="#p" />
	<use x="24" y="208" xlink:href="#p" />
	<use x="32" y="208" xlink:href="#p" />
	<use x="40" y="208" xlink:href="#p" />
	<use x="48" y="208" xlink:href="#p" />
	<use x="56" y="208" xlink:href="#p" />
	<use x="64" y="208" xlink:href="#p" />
	<use x="80" y="208" xlink:href="#p" />
	<use x="96" y="208" xlink:href="#p" />
	<use x="120" y="208" xlink:href="#p" />
	<use x="128" y="208" xlink:href="#p" />
	<use x="144" y="208" xlink:href="#p" />
	<use x="160" y="208" xlink:href="#p" />
	<use x="184" y="208" xlink:href="#p" />
	<use x="208" y="208" xlink:href="#p" />
</g>
</svg>