<?xml version="1.0" encoding="utf-8"?>
<!DOCTYPE svg PUBLIC "-//W3C//DTD SVG 1.1//EN" "http://www.w3.org/Graphics/SVG/1.1/DTD/svg11.dtd">
<svg xmlns="http://www.w3.org/2000/svg" version="1.1" xml:space="preserve" xmlns:xlink="http://www.w3.org/1999/xlink" width="264" height="264" viewBox="0 0 264 264">
<desc></desc>
<rect width="264" height="264" fill="#ffffff" cx="0" cy="0" />
<defs>
	<rect id="p" width="8" height="8" />
</defs>
<g fill="#000000">
	<use x="16" y="16" xlink:href="#p" />
	<use x="24" y="16" xlink:href="#p" />
	<use x="32" y="16" xlink:href="#p" />
	<use x="40" y="16" xlink:href="#p" />
	<use x="48" y="16" xlink:href="#p" />
	<use x="56" y="16" xlink:href="#p" />
	<use x="64" y="16" xlink:href="#p" />
	<use x="80" y="16" xlink:href="#p" />
	<use x="88" y="16" xlink:href="#p" />
	<use x="96" y="16" xlink:href="#p" />
	<use x="104" y="16" xlink:href="#p" />
	<use x="120" y="16" xlink:href="#p" />
	<use x="128" y="16" xlink:href="#p" />
	<use x="136" y="16" xlink:href="#p" />
	<use x="152" y="16" xlink:href="#p" />
	<use x="192" y="16" xlink:href="#p" />
	<use x="200" y="16" xlink:href="#p" />
	<use x="208" y="16" xlink:href="#p" />
	<use x="216" y="16" xlink:href="#p" />
	<use x="224" y="16" xlink:href="#p" />
	<use x="232" y="16" xlink:href="#p" />
	<use x="240" y="16" xlink:href="#p" />
	<use x="16" y="24" xlink:href="#p" />
	<use x="64" y="24" xlink:href="#p" />
	<use x="104" y="24" xlink:href="#p" />
	<use x="112" y="24" xlink:href="#p" />
	<use x="120" y="24" xlink:href="#p" />
	<use x="128" y="24" xlink:href="#p" />
	<use x="152" y="24" xlink:href="#p" />
	<use x="168" y="24" xlink:href="#p" />
	<use x="192" y="24" xlink:href="#p" />
	<use x="240" y="24" xlink:href="#p" />
	<use x="16" y="32" xlink:href="#p" />
	<use x="32" y="32" xlink:href="#p" />
	<use x="40" y="32" xlink:href="#p" />
	<use x="48" y="32" xlink:href="#p" />
	<use x="64" y="32" xlink:href="#p" />
	<use x="88" y="32" xlink:href="#p" />
	<use x="104" y="32" xlink:href="#p" />
	<use x="120" y="32" xlink:href="#p" />
	<use x="160" y="32" xlink:href="#p" />
	<use x="176" y="32" xlink:href="#p" />
	<use x="192" y="32" xlink:href="#p" />
	<use x="208" y="32" xlink:href="#p" />
	<use x="216" y="32" xlink:href="#p" />
	<use x="224" y="32" xlink:href="#p" />
	<use x="240" y="32" xlink:href="#p" />
	<use x="16" y="40" xlink:href="#p" />
	<use x="32" y="40" xlink:href="#p" />
	<use x="40" y="40" xlink:href="#p" />
	<use x="48" y="40" xlink:href="#p" />
	<use x="64" y="40" xlink:href="#p" />
	<use x="96" y="40" xlink:href="#p" />
	<use x="104" y="40" xlink:href="#p" />
	<use x="152" y="40" xlink:href="#p" />
	<use x="168" y="40" xlink:href="#p" />
	<use x="176" y="40" xlink:href="#p" />
	<use x="192" y="40" xlink:href="#p" />
	<use x="208" y="40" xlink:href="#p" />
	<use x="216" y="40" xlink:href="#p" />
	<use x="224" y="40" xlink:href="#p" />
	<use x="240" y="40" xlink:href="#p" />
	<use x="16" y="48" xlink:href="#p" />
	<use x="32" y="48" xlink:href="#p" />
	<use x="40" y="48" xlink:href="#p" />
	<use x="48" y="48" xlink:href="#p" />
	<use x="64" y="48" xlink:href="#p" />
	<use x="96" y="48" xlink:href="#p" />
	<use x="104" y="48" xlink:href="#p" />
	<use x="112" y="48" xlink:href="#p" />
	<use x="136" y="48" xlink:href="#p" />
	<use x="152" y="48" xlink:href="#p" />
	<use x="160" y="48" xlink:href="#p" />
	<use x="168" y="48" xlink:href="#p" />
	<use x="176" y="48" xlink:href="#p" />
	<use x="192" y="48" xlink:href="#p" />
	<use x="208" y="48" xlink:href="#p" />
	<use x="216" y="48" xlink:href="#p" />
	<use x="224" y="48" xlink:href="#p" />
	<use x="240" y="48" xlink:href="#p" />
	<use x="16" y="56" xlink:href="#p" />
	<use x="64" y="56" xlink:href="#p" />
	<use x="88" y="56" xlink:href="#p" />
	<use x="104" y="56" xlink:href="#p" />
	<use x="144" y="56" xlink:href="#p" />
	<use x="152" y="56" xlink:href="#p" />
	<use x="192" y="56" xlink:href="#p" />
	<use x="240" y="56" xlink:href="#p" />
	<use x="16" y="64" xlink:href="#p" />
	<use x="24" y="64" xlink:href="#p" />
	<use x="32" y="64" xlink:href="#p" />
	<use x="40" y="64" xlink:href="#p" />
	<use x="48" y="64" xlink:href="#p" />
	<use x="56" y="64" xlink:href="#p" />
	<use x="64" y="64" xlink:href="#p" />
	<use x="80" y="64" xlink:href="#p" />
	<use x="96" y="64" xlink:href="#p" />
	<use x="112" y="64" xlink:href="#p" />
	<use x="128" y="64" xlink:href="#p" />
	<use x="144" y="64" xlink:href="#p" />
	<use x="160" y="64" xlink:href="#p" />
	<use x="176" y="64" xlink:href="#p" />
	<use x="192" y="64" xlink:href="#p" />
	<use x="200" y="64" xlink:href="#p" />
	<use x="208" y="64" xlink:href="#p" />
	<use x="216" y="64" xlink:href="#p" />
	<use x="224" y="64" xlink:href="#p" />
	<use x="232" y="64" xlink:href="#p" />
	<use x="240" y="64" xlink:href="#p" />
	<use x="80" y="72" xlink:href="#p" />
	<use x="88" y="72" xlink:href="#p" />
	<use x="112" y="72" xlink:href="#p" />
	<use x="120" y="72" xlink:href="#p" />
	<use x="128" y="72" xlink:href="#p" />
	<use x="136" y="72" xlink:href="#p" />
	<use x="144" y="72" xlink:href="#p" />
	<use x="168" y="72" xlink:href="#p" />
	<use x="16" y="80" xlink:href="#p" />
	<use x="24" y="80" xlink:href="#p" />
	<use x="40" y="80" xlink:href="#p" />
	<use x="48" y="80" xlink:href="#p" />
	<use x="64" y="80" xlink:href="#p" />
	<use x="88" y="80" xlink:href="#p" />
	<use x="112" y="80" xlink:href="#p" />
	<use x="152" y="80" xlink:href="#p" />
	<use x="192" y="80" xlink:href="#p" />
	<use x="240" y="80" xlink:href="#p" />
	<use x="16" y="88" xlink:href="#p" />
	<use x="40" y="88" xlink:href="#p" />
	<use x="56" y="88" xlink:href="#p" />
	<use x="80" y="88" xlink:href="#p" />
	<use x="96" y="88" xlink:href="#p" />
	<use x="128" y="88" xlink:href="#p" />
	<use x="152" y="88" xlink:href="#p" />
	<use x="160" y="88" xlink:href="#p" />
	<use x="168" y="88" xlink:href="#p" />
	<use x="184" y="88" xlink:href="#p" />
	<use x="200" y="88" xlink:href="#p" />
	<use x="208" y="88" xlink:href="#p" />
	<use x="224" y="88" xlink:href="#p" />
	<use x="232" y="88" xlink:href="#p" />
	<use x="16" y="96" xlink:href="#p" />
	<use x="64" y="96" xlink:href="#p" />
	<use x="88" y="96" xlink:href="#p" />
	<use x="112" y="96" xlink:href="#p" />
	<use x="128" y="96" xlink:href="#p" />
	<use x="136" y="96" xlink:href="#p" />
	<use x="184" y="96" xlink:href="#p" />
	<use x="208" y="96" xlink:href="#p" />
	<use x="224" y="96" xlink:href="#p" />
	<use x="24" y="104" xlink:href="#p" />
	<use x="32" y="104" xlink:href="#p" />
	<use x="72" y="104" xlink:href="#p" />
	<use x="80" y="104" xlink:href="#p" />
	<use x="120" y="104" xlink:href="#p" />
	<use x="128" y="104" xlink:href="#p" />
	<use x="152" y="104" xlink:href="#p" />
	<use x="160" y="104" xlink:href="#p" />
	<use x="208" y="104" xlink:href="#p" />
	<use x="216" y="104" xlink:href="#p" />
	<use x="240" y="104" xlink:href="#p" />
	<use x="24" y="112" xlink:href="#p" />
	<use x="48" y="112" xlink:href="#p" />
	<use x="56" y="112" xlink:href="#p" />
	<use x="64" y="112" xlink:href="#p" />
	<use x="88" y="112" xlink:href="#p" />
	<use x="96" y="112" xlink:href="#p" />
	<use x="112" y="112" xlink:href="#p" />
	<use x="120" y="112" xlink:href="#p" />
	<use x="128" y="112" xlink:href="#p" />
	<use x="144" y="112" xlink:href="#p" />
	<use x="168" y="112" xlink:href="#p" />
	<use x="176" y="112" xlink:href="#p" />
	<use x="192" y="112" xlink:href="#p" />
	<use x="240" y="112" xlink:href="#p" />
	<use x="16" y="120" xlink:href="#p" />
	<use x="24" y="120" xlink:href="#p" />
	<use x="56" y="120" xlink:href="#p" />
	<use x="72" y="120" xlink:href="#p" />
	<use x="80" y="120" xlink:href="#p" />
	<use x="88" y="120" xlink:href="#p" />
	<use x="96" y="120" xlink:href="#p" />
	<use x="112" y="120" xlink:href="#p" />
	<use x="128" y="120" xlink:href="#p" />
	<use x="144" y="120" xlink:href="#p" />
	<use x="192" y="120" xlink:href="#p" />
	<use x="200" y="120" xlink:href="#p" />
	<use x="208" y="120" xlink:href="#p" />
	<use x="216" y="120" xlink:href="#p" />
	<use x="224" y="120" xlink:href="#p" />
	<use x="232" y="120" xlink:href="#p" />
	<use x="240" y="120" xlink:href="#p" />
	<use x="16" y="128" xlink:href="#p" />
	<use x="56" y="128" xlink:href="#p" />
	<use x="64" y="128" xlink:href="#p" />
	<use x="72" y="128" xlink:href="#p" />
	<use x="80" y="128" xlink:href="#p" />
	<use x="96" y="128" xlink:href="#p" />
	<use x="112" y="128" xlink:href="#p" />
	<use x="120" y="128" xlink:href="#p" />
	<use x="128" y="128" xlink:href="#p" />
	<use x="136" y="128" xlink:href="#p" />
	<use x="144" y="128" xlink:href="#p" />
	<use x="168" y="128" xlink:href="#p" />
	<use x="184" y="128" xlink:href="#p" />
	<use x="192" y="128" xlink:href="#p" />
	<use x="208" y="128" xlink:href="#p" />
	<use x="224" y="128" xlink:href="#p" />
	<use x="240" y="128" xlink:href="#p" />
	<use x="16" y="136" xlink:href="#p" />
	<use x="32" y="136" xlink:href="#p" />
	<use x="56" y="136" xlink:href="#p" />
	<use x="72" y="136" xlink:href="#p" />
	<use x="80" y="136" xlink:href="#p" />
	<use x="88" y="136" xlink:href="#p" />
	<use x="96" y="136" xlink:href="#p" />
	<use x="120" y="136" xlink:href="#p" />
	<use x="160" y="136" xlink:href="#p" />
	<use x="168" y="136" xlink:href="#p" />
	<use x="184" y="136" xlink:href="#p" />
	<use x="192" y="136" xlink:href="#p" />
	<use x="200" y="136" xlink:href="#p" />
	<use x="208" y="136" xlink:href="#p" />
	<use x="224" y="136" xlink:href="#p" />
	<use x="240" y="136" xlink:href="#p" />
	<use x="40" y="144" xlink:href="#p" />
	<use x="56" y="144" xlink:href="#p" />
	<use x="64" y="144" xlink:href="#p" />
	<use x="80" y="144" xlink:href="#p" />
	<use x="88" y="144" xlink:href="#p" />
	<use x="96" y="144" xlink:href="#p" />
	<use x="112" y="144" xlink:href="#p" />
	<use x="120" y="144" xlink:href="#p" />
	<use x="128" y="144" xlink:href="#p" />
	<use x="136" y="144" xlink:href="#p" />
	<use x="168" y="144" xlink:href="#p" />
	<use x="176" y="144" xlink:href="#p" />
	<use x="216" y="144" xlink:href="#p" />
	<use x="16" y="152" xlink:href="#p" />
	<use x="56" y="152" xlink:href="#p" />
	<use x="96" y="152" xlink:href="#p" />
	<use x="104" y="152" xlink:href="#p" />
	<use x="128" y="152" xlink:href="#p" />
	<use x="136" y="152" xlink:href="#p" />
	<use x="144" y="152" xlink:href="#p" />
	<use x="152" y="152" xlink:href="#p" />
	<use x="160" y="152" xlink:href="#p" />
	<use x="168" y="152" xlink:href="#p" />
	<use x="208" y="152" xlink:href="#p" />
	<use x="224" y="152" xlink:href="#p" />
	<use x="232" y="152" xlink:href="#p" />
	<use x="16" y="160" xlink:href="#p" />
	<use x="24" y="160" xlink:href="#p" />
	<use x="48" y="160" xlink:href="#p" />
	<use x="56" y="160" xlink:href="#p" />
	<use x="64" y="160" xlink:href="#p" />
	<use x="120" y="160" xlink:href="#p" />
	<use x="128" y="160" xlink:href="#p" />
	<use x="152" y="160" xlink:href="#p" />
	<use x="160" y="160" xlink:href="#p" />
	<use x="168" y="160" xlink:href="#p" />
	<use x="208" y="160" xlink:href="#p" />
	<use x="216" y="160" xlink:href="#p" />
	<use x="240" y="160" xlink:href="#p" />
	<use x="16" y="168" xlink:href="#p" />
	<use x="24" y="168" xlink:href="#p" />
	<use x="32" y="168" xlink:href="#p" />
	<use x="72" y="168" xlink:href="#p" />
	<use x="88" y="168" xlink:href="#p" />
	<use x="136" y="168" xlink:href="#p" />
	<use x="176" y="168" xlink:href="#p" />
	<use x="192" y="168" xlink:href="#p" />
	<use x="208" y="168" xlink:href="#p" />
	<use x="216" y="168" xlink:href="#p" />
	<use x="224" y="168" xlink:href="#p" />
	<use x="16" y="176" xlink:href="#p" />
	<use x="24" y="176" xlink:href="#p" />
	<use x="64" y="176" xlink:href="#p" />
	<use x="96" y="176" xlink:href="#p" />
	<use x="144" y="176" xlink:href="#p" />
	<use x="152" y="176" xlink:href="#p" />
	<use x="168" y="176" xlink:href="#p" />
	<use x="176" y="176" xlink:href="#p" />
	<use x="184" y="176" xlink:href="#p" />
	<use x="192" y="176" xlink:href="#p" />
	<use x="200" y="176" xlink:href="#p" />
	<use x="208" y="176" xlink:href="#p" />
	<use x="216" y="176" xlink:href="#p" />
	<use x="224" y="176" xlink:href="#p" />
	<use x="232" y="176" xlink:href="#p" />
	<use x="80" y="184" xlink:href="#p" />
	<use x="88" y="184" xlink:href="#p" />
	<use x="96" y="184" xlink:href="#p" />
	<use x="112" y="184" xlink:href="#p" />
	<use x="128" y="184" xlink:href="#p" />
	<use x="144" y="184" xlink:href="#p" />
	<use x="168" y="184" xlink:href="#p" />
	<use x="176" y="184" xlink:href="#p" />
	<use x="208" y="184" xlink:href="#p" />
	<use x="216" y="184" xlink:href="#p" />
	<use x="16" y="192" xlink:href="#p" />
	<use x="24" y="192" xlink:href="#p" />
	<use x="32" y="192" xlink:href="#p" />
	<use x="40" y="192" xlink:href="#p" />
	<use x="48" y="192" xlink:href="#p" />
	<use x="56" y="192" xlink:href="#p" />
	<use x="64" y="192" xlink:href="#p" />
	<use x="136" y="192" xlink:href="#p" />
	<use x="160" y="192" xlink:href="#p" />
	<use x="168" y="192" xlink:href="#p" />
	<use x="176" y="192" xlink:href="#p" />
	<use x="192" y="192" xlink:href="#p" />
	<use x="208" y="192" xlink:href="#p" />
	<use x="216" y="192" xlink:href="#p" />
	<use x="16" y="200" xlink:href="#p" />
	<use x="64" y="200" xlink:href="#p" />
	<use x="96" y="200" xlink:href="#p" />
	<use x="104" y="200" xlink:href="#p" />
	<use x="112" y="200" xlink:href="#p" />
	<use x="120" y="200" xlink:href="#p" />
	<use x="128" y="200" xlink:href="#p" />
	<use x="144" y="200" xlink:href="#p" />
	<use x="152" y="200" xlink:href="#p" />
	<use x="168" y="200" xlink:href="#p" />
	<use x="176" y="200" xlink:href="#p" />
	<use x="208" y="200" xlink:href="#p" />
	<use x="240" y="200" xlink:href="#p" />
	<use x="16" y="208" xlink:href="#p" />
	<use x="32" y="208" xlink:href="#p" />
	<use x="40" y="208" xlink:href="#p" />
	<use x="48" y="208" xlink:href="#p" />
	<use x="64" y="208" xlink:href="#p" />
	<use x="80" y="208" xlink:href="#p" />
	<use x="104" y="208" xlink:href="#p" />
	<use x="120" y="208" xlink:href="#p" />
	<use x="128" y="208" xlink:href="#p" />
	<use x="136" y="208" xlink:href="#p" />
	<use x="160" y="208" xlink:href="#p" />
	<use x="168" y="208" xlink:href="#p" />
	<use x="176" y="208" xlink:href="#p" />
	<use x="184" y="208" xlink:href="#p" />
	<use x="192" y="208" xlink:href="#p" />
	<use x="200" y="208" xlink:href="#p" />
	<use x="208" y="208" xlink:href="#p" />
	<use x="216" y="208" xlink:href="#p" />
	<use x="16" y="216" xlink:href="#p" />
	<use x="32" y="216" xlink:href="#p" />
	<use x="40" y="216" xlink:href="#p" />
	<use x="48" y="216" xlink:href="#p" />
	<use x="64" y="216" xlink:href="#p" />
	<use x="80" y="216" xlink:href="#p" />
	<use x="88" y="216" xlink:href="#p" />
	<use x="96" y="216" xlink:href="#p" />
	<use x="120" y="216" xlink:href="#p" />
	<use x="160" y="216" xlink:href="#p" />
	<use x="176" y="216" xlink:href="#p" />
	<use x="184" y="216" xlink:href="#p" />
	<use x="232" y="216" xlink:href="#p" />
	<use x="16" y="224" xlink:href="#p" />
	<use x="32" y="224" xlink:href="#p" />
	<use x="40" y="224" xlink:href="#p" />
	<use x="48" y="224" xlink:href="#p" />
	<use x="64" y="224" xlink:href="#p" />
	<use x="96" y="224" xlink:href="#p" />
	<use x="104" y="224" xlink:href="#p" />
	<use x="120" y="224" xlink:href="#p" />
	<use x="128" y="224" xlink:href="#p" />
	<use x="160" y="224" xlink:href="#p" />
	<use x="184" y="224" xlink:href="#p" />
	<use x="200" y="224" xlink:href="#p" />
	<use x="208" y="224" xlink:href="#p" />
	<use x="224" y="224" xlink:href="#p" />
	<use x="232" y="224" xlink:href="#p" />
	<use x="240" y="224" xlink:href="#p" />
	<use x="16" y="232" xlink:href="#p" />
	<use x="64" y="232" xlink:href="#p" />
	<use x="80" y="232" xlink:href="#p" />
	<use x="88" y="232" xlink:href="#p" />
	<use x="112" y="232" xlink:href="#p" />
	<use x="120" y="232" xlink:href="#p" />
	<use x="136" y="232" xlink:href="#p" />
	<use x="160" y="232" xlink:href="#p" />
	<use x="184" y="232" xlink:href="#p" />
	<use x="192" y="232" xlink:href="#p" />
	<use x="216" y="232" xlink:href="#p" />
	<use x="224" y="232" xlink:href="#p" />
	<use x="240" y="232" xlink:href="#p" />
	<use x="16" y="240" xlink:href="#p" />
	<use x="24" y="240" xlink:href="#p" />
	<use x="32" y="240" xlink:href="#p" />
	<use x="40" y="240" xlink:href="#p" />
	<use x="48" y="240" xlink:href="#p" />
	<use x="56" y="240" xlink:href="#p" />
	<use x="64" y="240" xlink:href="#p" />
	<use x="80" y="240" xlink:href="#p" />
	<use x="120" y="240" xlink:href="#p" />
	<use x="128" y="240" xlink:href="#p" />
	<use x="144" y="240" xlink:href="#p" />
	<use x="152" y="240" xlink:href="#p" />
	<use x="168" y="240" xlink:href="#p" />
	<use x="176" y="240" xlink:href="#p" />
	<use x="184" y="240" xlink:href="#p" />
</g>
</svg>